G04 #@! TF.GenerationSoftware,KiCad,Pcbnew,5.0.2-bee76a0~70~ubuntu18.04.1*
G04 #@! TF.CreationDate,2020-11-30T21:54:16+01:00*
G04 #@! TF.ProjectId,MateLightCrateConnector,4d617465-4c69-4676-9874-437261746543,v0.1.0*
G04 #@! TF.SameCoordinates,Original*
G04 #@! TF.FileFunction,Soldermask,Bot*
G04 #@! TF.FilePolarity,Negative*
%FSLAX46Y46*%
G04 Gerber Fmt 4.6, Leading zero omitted, Abs format (unit mm)*
G04 Created by KiCad (PCBNEW 5.0.2-bee76a0~70~ubuntu18.04.1) date Mo 30 Nov 2020 21:54:16 CET*
%MOMM*%
%LPD*%
G01*
G04 APERTURE LIST*
%ADD10C,0.100000*%
G04 APERTURE END LIST*
D10*
G36*
X97973870Y-113164786D02*
X97973873Y-113164787D01*
X98179527Y-113227171D01*
X98179529Y-113227172D01*
X98179532Y-113227173D01*
X98369060Y-113328477D01*
X98535186Y-113464814D01*
X98671523Y-113630940D01*
X98772827Y-113820468D01*
X98835214Y-114026130D01*
X98856278Y-114240000D01*
X98835214Y-114453870D01*
X98772827Y-114659532D01*
X98671523Y-114849060D01*
X98535186Y-115015186D01*
X98369060Y-115151523D01*
X98179532Y-115252827D01*
X98179529Y-115252828D01*
X98179527Y-115252829D01*
X98006147Y-115305423D01*
X97973870Y-115315214D01*
X97813592Y-115331000D01*
X96186408Y-115331000D01*
X96026130Y-115315214D01*
X95993853Y-115305423D01*
X95820473Y-115252829D01*
X95820471Y-115252828D01*
X95820468Y-115252827D01*
X95630940Y-115151523D01*
X95464814Y-115015186D01*
X95328477Y-114849060D01*
X95227173Y-114659532D01*
X95164786Y-114453870D01*
X95143722Y-114240000D01*
X95164786Y-114026130D01*
X95227173Y-113820468D01*
X95328477Y-113630940D01*
X95464814Y-113464814D01*
X95630940Y-113328477D01*
X95820468Y-113227173D01*
X95820471Y-113227172D01*
X95820473Y-113227171D01*
X96026127Y-113164787D01*
X96026130Y-113164786D01*
X96186408Y-113149000D01*
X97813592Y-113149000D01*
X97973870Y-113164786D01*
X97973870Y-113164786D01*
G37*
G36*
X162973870Y-113164786D02*
X162973873Y-113164787D01*
X163179527Y-113227171D01*
X163179529Y-113227172D01*
X163179532Y-113227173D01*
X163369060Y-113328477D01*
X163535186Y-113464814D01*
X163671523Y-113630940D01*
X163772827Y-113820468D01*
X163835214Y-114026130D01*
X163856278Y-114240000D01*
X163835214Y-114453870D01*
X163772827Y-114659532D01*
X163671523Y-114849060D01*
X163535186Y-115015186D01*
X163369060Y-115151523D01*
X163179532Y-115252827D01*
X163179529Y-115252828D01*
X163179527Y-115252829D01*
X163006147Y-115305423D01*
X162973870Y-115315214D01*
X162813592Y-115331000D01*
X161186408Y-115331000D01*
X161026130Y-115315214D01*
X160993853Y-115305423D01*
X160820473Y-115252829D01*
X160820471Y-115252828D01*
X160820468Y-115252827D01*
X160630940Y-115151523D01*
X160464814Y-115015186D01*
X160328477Y-114849060D01*
X160227173Y-114659532D01*
X160164786Y-114453870D01*
X160143722Y-114240000D01*
X160164786Y-114026130D01*
X160227173Y-113820468D01*
X160328477Y-113630940D01*
X160464814Y-113464814D01*
X160630940Y-113328477D01*
X160820468Y-113227173D01*
X160820471Y-113227172D01*
X160820473Y-113227171D01*
X161026127Y-113164787D01*
X161026130Y-113164786D01*
X161186408Y-113149000D01*
X162813592Y-113149000D01*
X162973870Y-113164786D01*
X162973870Y-113164786D01*
G37*
G36*
X97973870Y-108084786D02*
X97973873Y-108084787D01*
X98179527Y-108147171D01*
X98179529Y-108147172D01*
X98179532Y-108147173D01*
X98369060Y-108248477D01*
X98535186Y-108384814D01*
X98671523Y-108550940D01*
X98772827Y-108740468D01*
X98835214Y-108946130D01*
X98856278Y-109160000D01*
X98835214Y-109373870D01*
X98772827Y-109579532D01*
X98671523Y-109769060D01*
X98535186Y-109935186D01*
X98369060Y-110071523D01*
X98179532Y-110172827D01*
X98179529Y-110172828D01*
X98179527Y-110172829D01*
X98006147Y-110225423D01*
X97973870Y-110235214D01*
X97813592Y-110251000D01*
X96186408Y-110251000D01*
X96026130Y-110235214D01*
X95993853Y-110225423D01*
X95820473Y-110172829D01*
X95820471Y-110172828D01*
X95820468Y-110172827D01*
X95630940Y-110071523D01*
X95464814Y-109935186D01*
X95328477Y-109769060D01*
X95227173Y-109579532D01*
X95164786Y-109373870D01*
X95143722Y-109160000D01*
X95164786Y-108946130D01*
X95227173Y-108740468D01*
X95328477Y-108550940D01*
X95464814Y-108384814D01*
X95630940Y-108248477D01*
X95820468Y-108147173D01*
X95820471Y-108147172D01*
X95820473Y-108147171D01*
X96026127Y-108084787D01*
X96026130Y-108084786D01*
X96186408Y-108069000D01*
X97813592Y-108069000D01*
X97973870Y-108084786D01*
X97973870Y-108084786D01*
G37*
G36*
X162973870Y-108084786D02*
X162973873Y-108084787D01*
X163179527Y-108147171D01*
X163179529Y-108147172D01*
X163179532Y-108147173D01*
X163369060Y-108248477D01*
X163535186Y-108384814D01*
X163671523Y-108550940D01*
X163772827Y-108740468D01*
X163835214Y-108946130D01*
X163856278Y-109160000D01*
X163835214Y-109373870D01*
X163772827Y-109579532D01*
X163671523Y-109769060D01*
X163535186Y-109935186D01*
X163369060Y-110071523D01*
X163179532Y-110172827D01*
X163179529Y-110172828D01*
X163179527Y-110172829D01*
X163006147Y-110225423D01*
X162973870Y-110235214D01*
X162813592Y-110251000D01*
X161186408Y-110251000D01*
X161026130Y-110235214D01*
X160993853Y-110225423D01*
X160820473Y-110172829D01*
X160820471Y-110172828D01*
X160820468Y-110172827D01*
X160630940Y-110071523D01*
X160464814Y-109935186D01*
X160328477Y-109769060D01*
X160227173Y-109579532D01*
X160164786Y-109373870D01*
X160143722Y-109160000D01*
X160164786Y-108946130D01*
X160227173Y-108740468D01*
X160328477Y-108550940D01*
X160464814Y-108384814D01*
X160630940Y-108248477D01*
X160820468Y-108147173D01*
X160820471Y-108147172D01*
X160820473Y-108147171D01*
X161026127Y-108084787D01*
X161026130Y-108084786D01*
X161186408Y-108069000D01*
X162813592Y-108069000D01*
X162973870Y-108084786D01*
X162973870Y-108084786D01*
G37*
G36*
X97973870Y-103004786D02*
X97973873Y-103004787D01*
X98179527Y-103067171D01*
X98179529Y-103067172D01*
X98179532Y-103067173D01*
X98369060Y-103168477D01*
X98535186Y-103304814D01*
X98671523Y-103470940D01*
X98772827Y-103660468D01*
X98835214Y-103866130D01*
X98856278Y-104080000D01*
X98835214Y-104293870D01*
X98772827Y-104499532D01*
X98671523Y-104689060D01*
X98535186Y-104855186D01*
X98369060Y-104991523D01*
X98179532Y-105092827D01*
X98179529Y-105092828D01*
X98179527Y-105092829D01*
X98006147Y-105145423D01*
X97973870Y-105155214D01*
X97813592Y-105171000D01*
X96186408Y-105171000D01*
X96026130Y-105155214D01*
X95993853Y-105145423D01*
X95820473Y-105092829D01*
X95820471Y-105092828D01*
X95820468Y-105092827D01*
X95630940Y-104991523D01*
X95464814Y-104855186D01*
X95328477Y-104689060D01*
X95227173Y-104499532D01*
X95164786Y-104293870D01*
X95143722Y-104080000D01*
X95164786Y-103866130D01*
X95227173Y-103660468D01*
X95328477Y-103470940D01*
X95464814Y-103304814D01*
X95630940Y-103168477D01*
X95820468Y-103067173D01*
X95820471Y-103067172D01*
X95820473Y-103067171D01*
X96026127Y-103004787D01*
X96026130Y-103004786D01*
X96186408Y-102989000D01*
X97813592Y-102989000D01*
X97973870Y-103004786D01*
X97973870Y-103004786D01*
G37*
G36*
X130473870Y-103004786D02*
X130473873Y-103004787D01*
X130679527Y-103067171D01*
X130679529Y-103067172D01*
X130679532Y-103067173D01*
X130869060Y-103168477D01*
X131035186Y-103304814D01*
X131171523Y-103470940D01*
X131272827Y-103660468D01*
X131335214Y-103866130D01*
X131356278Y-104080000D01*
X131335214Y-104293870D01*
X131272827Y-104499532D01*
X131171523Y-104689060D01*
X131035186Y-104855186D01*
X130869060Y-104991523D01*
X130679532Y-105092827D01*
X130679529Y-105092828D01*
X130679527Y-105092829D01*
X130506147Y-105145423D01*
X130473870Y-105155214D01*
X130313592Y-105171000D01*
X128686408Y-105171000D01*
X128526130Y-105155214D01*
X128493853Y-105145423D01*
X128320473Y-105092829D01*
X128320471Y-105092828D01*
X128320468Y-105092827D01*
X128130940Y-104991523D01*
X127964814Y-104855186D01*
X127828477Y-104689060D01*
X127727173Y-104499532D01*
X127664786Y-104293870D01*
X127643722Y-104080000D01*
X127664786Y-103866130D01*
X127727173Y-103660468D01*
X127828477Y-103470940D01*
X127964814Y-103304814D01*
X128130940Y-103168477D01*
X128320468Y-103067173D01*
X128320471Y-103067172D01*
X128320473Y-103067171D01*
X128526127Y-103004787D01*
X128526130Y-103004786D01*
X128686408Y-102989000D01*
X130313592Y-102989000D01*
X130473870Y-103004786D01*
X130473870Y-103004786D01*
G37*
G36*
X162973870Y-103004786D02*
X162973873Y-103004787D01*
X163179527Y-103067171D01*
X163179529Y-103067172D01*
X163179532Y-103067173D01*
X163369060Y-103168477D01*
X163535186Y-103304814D01*
X163671523Y-103470940D01*
X163772827Y-103660468D01*
X163835214Y-103866130D01*
X163856278Y-104080000D01*
X163835214Y-104293870D01*
X163772827Y-104499532D01*
X163671523Y-104689060D01*
X163535186Y-104855186D01*
X163369060Y-104991523D01*
X163179532Y-105092827D01*
X163179529Y-105092828D01*
X163179527Y-105092829D01*
X163006147Y-105145423D01*
X162973870Y-105155214D01*
X162813592Y-105171000D01*
X161186408Y-105171000D01*
X161026130Y-105155214D01*
X160993853Y-105145423D01*
X160820473Y-105092829D01*
X160820471Y-105092828D01*
X160820468Y-105092827D01*
X160630940Y-104991523D01*
X160464814Y-104855186D01*
X160328477Y-104689060D01*
X160227173Y-104499532D01*
X160164786Y-104293870D01*
X160143722Y-104080000D01*
X160164786Y-103866130D01*
X160227173Y-103660468D01*
X160328477Y-103470940D01*
X160464814Y-103304814D01*
X160630940Y-103168477D01*
X160820468Y-103067173D01*
X160820471Y-103067172D01*
X160820473Y-103067171D01*
X161026127Y-103004787D01*
X161026130Y-103004786D01*
X161186408Y-102989000D01*
X162813592Y-102989000D01*
X162973870Y-103004786D01*
X162973870Y-103004786D01*
G37*
G36*
X131216216Y-97912808D02*
X131247491Y-97922295D01*
X131276309Y-97937698D01*
X131301570Y-97958430D01*
X131322302Y-97983691D01*
X131337705Y-98012509D01*
X131347192Y-98043784D01*
X131351000Y-98082447D01*
X131351000Y-99917553D01*
X131347192Y-99956216D01*
X131337705Y-99987491D01*
X131322302Y-100016309D01*
X131301570Y-100041570D01*
X131276309Y-100062302D01*
X131247491Y-100077705D01*
X131216216Y-100087192D01*
X131177553Y-100091000D01*
X127822447Y-100091000D01*
X127783784Y-100087192D01*
X127752509Y-100077705D01*
X127723691Y-100062302D01*
X127698430Y-100041570D01*
X127677698Y-100016309D01*
X127662295Y-99987491D01*
X127652808Y-99956216D01*
X127649000Y-99917553D01*
X127649000Y-98082447D01*
X127652808Y-98043784D01*
X127662295Y-98012509D01*
X127677698Y-97983691D01*
X127698430Y-97958430D01*
X127723691Y-97937698D01*
X127752509Y-97922295D01*
X127783784Y-97912808D01*
X127822447Y-97909000D01*
X131177553Y-97909000D01*
X131216216Y-97912808D01*
X131216216Y-97912808D01*
G37*
G36*
X98716216Y-97912808D02*
X98747491Y-97922295D01*
X98776309Y-97937698D01*
X98801570Y-97958430D01*
X98822302Y-97983691D01*
X98837705Y-98012509D01*
X98847192Y-98043784D01*
X98851000Y-98082447D01*
X98851000Y-99917553D01*
X98847192Y-99956216D01*
X98837705Y-99987491D01*
X98822302Y-100016309D01*
X98801570Y-100041570D01*
X98776309Y-100062302D01*
X98747491Y-100077705D01*
X98716216Y-100087192D01*
X98677553Y-100091000D01*
X95322447Y-100091000D01*
X95283784Y-100087192D01*
X95252509Y-100077705D01*
X95223691Y-100062302D01*
X95198430Y-100041570D01*
X95177698Y-100016309D01*
X95162295Y-99987491D01*
X95152808Y-99956216D01*
X95149000Y-99917553D01*
X95149000Y-98082447D01*
X95152808Y-98043784D01*
X95162295Y-98012509D01*
X95177698Y-97983691D01*
X95198430Y-97958430D01*
X95223691Y-97937698D01*
X95252509Y-97922295D01*
X95283784Y-97912808D01*
X95322447Y-97909000D01*
X98677553Y-97909000D01*
X98716216Y-97912808D01*
X98716216Y-97912808D01*
G37*
G36*
X163716216Y-97912808D02*
X163747491Y-97922295D01*
X163776309Y-97937698D01*
X163801570Y-97958430D01*
X163822302Y-97983691D01*
X163837705Y-98012509D01*
X163847192Y-98043784D01*
X163851000Y-98082447D01*
X163851000Y-99917553D01*
X163847192Y-99956216D01*
X163837705Y-99987491D01*
X163822302Y-100016309D01*
X163801570Y-100041570D01*
X163776309Y-100062302D01*
X163747491Y-100077705D01*
X163716216Y-100087192D01*
X163677553Y-100091000D01*
X160322447Y-100091000D01*
X160283784Y-100087192D01*
X160252509Y-100077705D01*
X160223691Y-100062302D01*
X160198430Y-100041570D01*
X160177698Y-100016309D01*
X160162295Y-99987491D01*
X160152808Y-99956216D01*
X160149000Y-99917553D01*
X160149000Y-98082447D01*
X160152808Y-98043784D01*
X160162295Y-98012509D01*
X160177698Y-97983691D01*
X160198430Y-97958430D01*
X160223691Y-97937698D01*
X160252509Y-97922295D01*
X160283784Y-97912808D01*
X160322447Y-97909000D01*
X163677553Y-97909000D01*
X163716216Y-97912808D01*
X163716216Y-97912808D01*
G37*
M02*
