G04 #@! TF.GenerationSoftware,KiCad,Pcbnew,5.0.2-bee76a0~70~ubuntu18.04.1*
G04 #@! TF.CreationDate,2020-11-30T21:54:16+01:00*
G04 #@! TF.ProjectId,MateLightCrateConnector,4d617465-4c69-4676-9874-437261746543,v0.1.0*
G04 #@! TF.SameCoordinates,Original*
G04 #@! TF.FileFunction,Copper,L2,Bot*
G04 #@! TF.FilePolarity,Positive*
%FSLAX46Y46*%
G04 Gerber Fmt 4.6, Leading zero omitted, Abs format (unit mm)*
G04 Created by KiCad (PCBNEW 5.0.2-bee76a0~70~ubuntu18.04.1) date Mo 30 Nov 2020 21:54:16 CET*
%MOMM*%
%LPD*%
G01*
G04 APERTURE LIST*
G04 #@! TA.AperFunction,ComponentPad*
%ADD10O,3.600000X2.080000*%
G04 #@! TD*
G04 #@! TA.AperFunction,Conductor*
%ADD11C,0.100000*%
G04 #@! TD*
G04 #@! TA.AperFunction,ComponentPad*
%ADD12C,2.080000*%
G04 #@! TD*
G04 #@! TA.AperFunction,Conductor*
%ADD13C,3.000000*%
G04 #@! TD*
G04 APERTURE END LIST*
D10*
G04 #@! TO.P,J1,4*
G04 #@! TO.N,/DATA*
X97000000Y-114240000D03*
G04 #@! TO.P,J1,3*
G04 #@! TO.N,/CLK*
X97000000Y-109160000D03*
G04 #@! TO.P,J1,2*
G04 #@! TO.N,/GND*
X97000000Y-104080000D03*
D11*
G04 #@! TD*
G04 #@! TO.N,/5V*
G04 #@! TO.C,J1*
G36*
X98574505Y-97961204D02*
X98598773Y-97964804D01*
X98622572Y-97970765D01*
X98645671Y-97979030D01*
X98667850Y-97989520D01*
X98688893Y-98002132D01*
X98708599Y-98016747D01*
X98726777Y-98033223D01*
X98743253Y-98051401D01*
X98757868Y-98071107D01*
X98770480Y-98092150D01*
X98780970Y-98114329D01*
X98789235Y-98137428D01*
X98795196Y-98161227D01*
X98798796Y-98185495D01*
X98800000Y-98209999D01*
X98800000Y-99790001D01*
X98798796Y-99814505D01*
X98795196Y-99838773D01*
X98789235Y-99862572D01*
X98780970Y-99885671D01*
X98770480Y-99907850D01*
X98757868Y-99928893D01*
X98743253Y-99948599D01*
X98726777Y-99966777D01*
X98708599Y-99983253D01*
X98688893Y-99997868D01*
X98667850Y-100010480D01*
X98645671Y-100020970D01*
X98622572Y-100029235D01*
X98598773Y-100035196D01*
X98574505Y-100038796D01*
X98550001Y-100040000D01*
X95449999Y-100040000D01*
X95425495Y-100038796D01*
X95401227Y-100035196D01*
X95377428Y-100029235D01*
X95354329Y-100020970D01*
X95332150Y-100010480D01*
X95311107Y-99997868D01*
X95291401Y-99983253D01*
X95273223Y-99966777D01*
X95256747Y-99948599D01*
X95242132Y-99928893D01*
X95229520Y-99907850D01*
X95219030Y-99885671D01*
X95210765Y-99862572D01*
X95204804Y-99838773D01*
X95201204Y-99814505D01*
X95200000Y-99790001D01*
X95200000Y-98209999D01*
X95201204Y-98185495D01*
X95204804Y-98161227D01*
X95210765Y-98137428D01*
X95219030Y-98114329D01*
X95229520Y-98092150D01*
X95242132Y-98071107D01*
X95256747Y-98051401D01*
X95273223Y-98033223D01*
X95291401Y-98016747D01*
X95311107Y-98002132D01*
X95332150Y-97989520D01*
X95354329Y-97979030D01*
X95377428Y-97970765D01*
X95401227Y-97964804D01*
X95425495Y-97961204D01*
X95449999Y-97960000D01*
X98550001Y-97960000D01*
X98574505Y-97961204D01*
X98574505Y-97961204D01*
G37*
D12*
G04 #@! TO.P,J1,1*
G04 #@! TO.N,/5V*
X97000000Y-99000000D03*
G04 #@! TD*
D11*
G04 #@! TO.N,/5V*
G04 #@! TO.C,J2*
G36*
X131074505Y-97961204D02*
X131098773Y-97964804D01*
X131122572Y-97970765D01*
X131145671Y-97979030D01*
X131167850Y-97989520D01*
X131188893Y-98002132D01*
X131208599Y-98016747D01*
X131226777Y-98033223D01*
X131243253Y-98051401D01*
X131257868Y-98071107D01*
X131270480Y-98092150D01*
X131280970Y-98114329D01*
X131289235Y-98137428D01*
X131295196Y-98161227D01*
X131298796Y-98185495D01*
X131300000Y-98209999D01*
X131300000Y-99790001D01*
X131298796Y-99814505D01*
X131295196Y-99838773D01*
X131289235Y-99862572D01*
X131280970Y-99885671D01*
X131270480Y-99907850D01*
X131257868Y-99928893D01*
X131243253Y-99948599D01*
X131226777Y-99966777D01*
X131208599Y-99983253D01*
X131188893Y-99997868D01*
X131167850Y-100010480D01*
X131145671Y-100020970D01*
X131122572Y-100029235D01*
X131098773Y-100035196D01*
X131074505Y-100038796D01*
X131050001Y-100040000D01*
X127949999Y-100040000D01*
X127925495Y-100038796D01*
X127901227Y-100035196D01*
X127877428Y-100029235D01*
X127854329Y-100020970D01*
X127832150Y-100010480D01*
X127811107Y-99997868D01*
X127791401Y-99983253D01*
X127773223Y-99966777D01*
X127756747Y-99948599D01*
X127742132Y-99928893D01*
X127729520Y-99907850D01*
X127719030Y-99885671D01*
X127710765Y-99862572D01*
X127704804Y-99838773D01*
X127701204Y-99814505D01*
X127700000Y-99790001D01*
X127700000Y-98209999D01*
X127701204Y-98185495D01*
X127704804Y-98161227D01*
X127710765Y-98137428D01*
X127719030Y-98114329D01*
X127729520Y-98092150D01*
X127742132Y-98071107D01*
X127756747Y-98051401D01*
X127773223Y-98033223D01*
X127791401Y-98016747D01*
X127811107Y-98002132D01*
X127832150Y-97989520D01*
X127854329Y-97979030D01*
X127877428Y-97970765D01*
X127901227Y-97964804D01*
X127925495Y-97961204D01*
X127949999Y-97960000D01*
X131050001Y-97960000D01*
X131074505Y-97961204D01*
X131074505Y-97961204D01*
G37*
D12*
G04 #@! TD*
G04 #@! TO.P,J2,1*
G04 #@! TO.N,/5V*
X129500000Y-99000000D03*
D10*
G04 #@! TO.P,J2,2*
G04 #@! TO.N,/GND*
X129500000Y-104080000D03*
G04 #@! TD*
D11*
G04 #@! TO.N,/5V*
G04 #@! TO.C,J3*
G36*
X163574505Y-97961204D02*
X163598773Y-97964804D01*
X163622572Y-97970765D01*
X163645671Y-97979030D01*
X163667850Y-97989520D01*
X163688893Y-98002132D01*
X163708599Y-98016747D01*
X163726777Y-98033223D01*
X163743253Y-98051401D01*
X163757868Y-98071107D01*
X163770480Y-98092150D01*
X163780970Y-98114329D01*
X163789235Y-98137428D01*
X163795196Y-98161227D01*
X163798796Y-98185495D01*
X163800000Y-98209999D01*
X163800000Y-99790001D01*
X163798796Y-99814505D01*
X163795196Y-99838773D01*
X163789235Y-99862572D01*
X163780970Y-99885671D01*
X163770480Y-99907850D01*
X163757868Y-99928893D01*
X163743253Y-99948599D01*
X163726777Y-99966777D01*
X163708599Y-99983253D01*
X163688893Y-99997868D01*
X163667850Y-100010480D01*
X163645671Y-100020970D01*
X163622572Y-100029235D01*
X163598773Y-100035196D01*
X163574505Y-100038796D01*
X163550001Y-100040000D01*
X160449999Y-100040000D01*
X160425495Y-100038796D01*
X160401227Y-100035196D01*
X160377428Y-100029235D01*
X160354329Y-100020970D01*
X160332150Y-100010480D01*
X160311107Y-99997868D01*
X160291401Y-99983253D01*
X160273223Y-99966777D01*
X160256747Y-99948599D01*
X160242132Y-99928893D01*
X160229520Y-99907850D01*
X160219030Y-99885671D01*
X160210765Y-99862572D01*
X160204804Y-99838773D01*
X160201204Y-99814505D01*
X160200000Y-99790001D01*
X160200000Y-98209999D01*
X160201204Y-98185495D01*
X160204804Y-98161227D01*
X160210765Y-98137428D01*
X160219030Y-98114329D01*
X160229520Y-98092150D01*
X160242132Y-98071107D01*
X160256747Y-98051401D01*
X160273223Y-98033223D01*
X160291401Y-98016747D01*
X160311107Y-98002132D01*
X160332150Y-97989520D01*
X160354329Y-97979030D01*
X160377428Y-97970765D01*
X160401227Y-97964804D01*
X160425495Y-97961204D01*
X160449999Y-97960000D01*
X163550001Y-97960000D01*
X163574505Y-97961204D01*
X163574505Y-97961204D01*
G37*
D12*
G04 #@! TD*
G04 #@! TO.P,J3,1*
G04 #@! TO.N,/5V*
X162000000Y-99000000D03*
D10*
G04 #@! TO.P,J3,2*
G04 #@! TO.N,/GND*
X162000000Y-104080000D03*
G04 #@! TO.P,J3,3*
G04 #@! TO.N,/CLK*
X162000000Y-109160000D03*
G04 #@! TO.P,J3,4*
G04 #@! TO.N,/DATA*
X162000000Y-114240000D03*
G04 #@! TD*
D13*
G04 #@! TO.N,/DATA*
X157200000Y-114240000D02*
X97000000Y-114240000D01*
X162000000Y-114240000D02*
X157200000Y-114240000D01*
G04 #@! TO.N,/CLK*
X97000000Y-109160000D02*
X162000000Y-109160000D01*
G04 #@! TO.N,/GND*
X162000000Y-104080000D02*
X129500000Y-104080000D01*
X124700000Y-104080000D02*
X97000000Y-104080000D01*
X129500000Y-104080000D02*
X124700000Y-104080000D01*
G04 #@! TO.N,/5V*
X97000000Y-99000000D02*
X129500000Y-99000000D01*
X129500000Y-99000000D02*
X162000000Y-99000000D01*
G04 #@! TD*
M02*
