G04 #@! TF.GenerationSoftware,KiCad,Pcbnew,5.0.2-bee76a0~70~ubuntu18.04.1*
G04 #@! TF.CreationDate,2020-11-30T21:54:16+01:00*
G04 #@! TF.ProjectId,MateLightCrateConnector,4d617465-4c69-4676-9874-437261746543,v0.1.0*
G04 #@! TF.SameCoordinates,Original*
G04 #@! TF.FileFunction,Legend,Top*
G04 #@! TF.FilePolarity,Positive*
%FSLAX46Y46*%
G04 Gerber Fmt 4.6, Leading zero omitted, Abs format (unit mm)*
G04 Created by KiCad (PCBNEW 5.0.2-bee76a0~70~ubuntu18.04.1) date Mo 30 Nov 2020 21:54:16 CET*
%MOMM*%
%LPD*%
G01*
G04 APERTURE LIST*
%ADD10C,0.300000*%
%ADD11C,0.120000*%
%ADD12C,0.150000*%
G04 APERTURE END LIST*
D10*
X80221428Y-113214285D02*
X80150000Y-113142857D01*
X80078571Y-113000000D01*
X80078571Y-112642857D01*
X80150000Y-112500000D01*
X80221428Y-112428571D01*
X80364285Y-112357142D01*
X80507142Y-112357142D01*
X80721428Y-112428571D01*
X81578571Y-113285714D01*
X81578571Y-112357142D01*
X80078571Y-111071428D02*
X80078571Y-111357142D01*
X80150000Y-111500000D01*
X80221428Y-111571428D01*
X80435714Y-111714285D01*
X80721428Y-111785714D01*
X81292857Y-111785714D01*
X81435714Y-111714285D01*
X81507142Y-111642857D01*
X81578571Y-111500000D01*
X81578571Y-111214285D01*
X81507142Y-111071428D01*
X81435714Y-111000000D01*
X81292857Y-110928571D01*
X80935714Y-110928571D01*
X80792857Y-111000000D01*
X80721428Y-111071428D01*
X80650000Y-111214285D01*
X80650000Y-111500000D01*
X80721428Y-111642857D01*
X80792857Y-111714285D01*
X80935714Y-111785714D01*
X81507142Y-110214285D02*
X81578571Y-110214285D01*
X81721428Y-110285714D01*
X81792857Y-110357142D01*
X80078571Y-109285714D02*
X80078571Y-109142857D01*
X80150000Y-109000000D01*
X80221428Y-108928571D01*
X80364285Y-108857142D01*
X80650000Y-108785714D01*
X81007142Y-108785714D01*
X81292857Y-108857142D01*
X81435714Y-108928571D01*
X81507142Y-109000000D01*
X81578571Y-109142857D01*
X81578571Y-109285714D01*
X81507142Y-109428571D01*
X81435714Y-109500000D01*
X81292857Y-109571428D01*
X81007142Y-109642857D01*
X80650000Y-109642857D01*
X80364285Y-109571428D01*
X80221428Y-109500000D01*
X80150000Y-109428571D01*
X80078571Y-109285714D01*
X80078571Y-107857142D02*
X80078571Y-107714285D01*
X80150000Y-107571428D01*
X80221428Y-107500000D01*
X80364285Y-107428571D01*
X80650000Y-107357142D01*
X81007142Y-107357142D01*
X81292857Y-107428571D01*
X81435714Y-107500000D01*
X81507142Y-107571428D01*
X81578571Y-107714285D01*
X81578571Y-107857142D01*
X81507142Y-108000000D01*
X81435714Y-108071428D01*
X81292857Y-108142857D01*
X81007142Y-108214285D01*
X80650000Y-108214285D01*
X80364285Y-108142857D01*
X80221428Y-108071428D01*
X80150000Y-108000000D01*
X80078571Y-107857142D01*
X80078571Y-106428571D02*
X80078571Y-106285714D01*
X80150000Y-106142857D01*
X80221428Y-106071428D01*
X80364285Y-106000000D01*
X80650000Y-105928571D01*
X81007142Y-105928571D01*
X81292857Y-106000000D01*
X81435714Y-106071428D01*
X81507142Y-106142857D01*
X81578571Y-106285714D01*
X81578571Y-106428571D01*
X81507142Y-106571428D01*
X81435714Y-106642857D01*
X81292857Y-106714285D01*
X81007142Y-106785714D01*
X80650000Y-106785714D01*
X80364285Y-106714285D01*
X80221428Y-106642857D01*
X80150000Y-106571428D01*
X80078571Y-106428571D01*
X81578571Y-104142857D02*
X80578571Y-104142857D01*
X80721428Y-104142857D02*
X80650000Y-104071428D01*
X80578571Y-103928571D01*
X80578571Y-103714285D01*
X80650000Y-103571428D01*
X80792857Y-103500000D01*
X81578571Y-103500000D01*
X80792857Y-103500000D02*
X80650000Y-103428571D01*
X80578571Y-103285714D01*
X80578571Y-103071428D01*
X80650000Y-102928571D01*
X80792857Y-102857142D01*
X81578571Y-102857142D01*
X81578571Y-102142857D02*
X80578571Y-102142857D01*
X80721428Y-102142857D02*
X80650000Y-102071428D01*
X80578571Y-101928571D01*
X80578571Y-101714285D01*
X80650000Y-101571428D01*
X80792857Y-101500000D01*
X81578571Y-101500000D01*
X80792857Y-101500000D02*
X80650000Y-101428571D01*
X80578571Y-101285714D01*
X80578571Y-101071428D01*
X80650000Y-100928571D01*
X80792857Y-100857142D01*
X81578571Y-100857142D01*
X83000000Y-120000000D02*
X83000000Y-94000000D01*
X90000000Y-120000000D02*
X82413579Y-120000000D01*
X90000000Y-94000000D02*
X82413579Y-94000000D01*
X83000000Y-94000000D02*
X83586421Y-95126504D01*
X83000000Y-94000000D02*
X82413579Y-95126504D01*
X83000000Y-120000000D02*
X83586421Y-118873496D01*
X83000000Y-120000000D02*
X82413579Y-118873496D01*
X124071428Y-128921428D02*
X123928571Y-128850000D01*
X123857142Y-128778571D01*
X123785714Y-128635714D01*
X123785714Y-128564285D01*
X123857142Y-128421428D01*
X123928571Y-128350000D01*
X124071428Y-128278571D01*
X124357142Y-128278571D01*
X124500000Y-128350000D01*
X124571428Y-128421428D01*
X124642857Y-128564285D01*
X124642857Y-128635714D01*
X124571428Y-128778571D01*
X124500000Y-128850000D01*
X124357142Y-128921428D01*
X124071428Y-128921428D01*
X123928571Y-128992857D01*
X123857142Y-129064285D01*
X123785714Y-129207142D01*
X123785714Y-129492857D01*
X123857142Y-129635714D01*
X123928571Y-129707142D01*
X124071428Y-129778571D01*
X124357142Y-129778571D01*
X124500000Y-129707142D01*
X124571428Y-129635714D01*
X124642857Y-129492857D01*
X124642857Y-129207142D01*
X124571428Y-129064285D01*
X124500000Y-128992857D01*
X124357142Y-128921428D01*
X125571428Y-128278571D02*
X125714285Y-128278571D01*
X125857142Y-128350000D01*
X125928571Y-128421428D01*
X126000000Y-128564285D01*
X126071428Y-128850000D01*
X126071428Y-129207142D01*
X126000000Y-129492857D01*
X125928571Y-129635714D01*
X125857142Y-129707142D01*
X125714285Y-129778571D01*
X125571428Y-129778571D01*
X125428571Y-129707142D01*
X125357142Y-129635714D01*
X125285714Y-129492857D01*
X125214285Y-129207142D01*
X125214285Y-128850000D01*
X125285714Y-128564285D01*
X125357142Y-128421428D01*
X125428571Y-128350000D01*
X125571428Y-128278571D01*
X126785714Y-129707142D02*
X126785714Y-129778571D01*
X126714285Y-129921428D01*
X126642857Y-129992857D01*
X127714285Y-128278571D02*
X127857142Y-128278571D01*
X128000000Y-128350000D01*
X128071428Y-128421428D01*
X128142857Y-128564285D01*
X128214285Y-128850000D01*
X128214285Y-129207142D01*
X128142857Y-129492857D01*
X128071428Y-129635714D01*
X128000000Y-129707142D01*
X127857142Y-129778571D01*
X127714285Y-129778571D01*
X127571428Y-129707142D01*
X127500000Y-129635714D01*
X127428571Y-129492857D01*
X127357142Y-129207142D01*
X127357142Y-128850000D01*
X127428571Y-128564285D01*
X127500000Y-128421428D01*
X127571428Y-128350000D01*
X127714285Y-128278571D01*
X129142857Y-128278571D02*
X129285714Y-128278571D01*
X129428571Y-128350000D01*
X129500000Y-128421428D01*
X129571428Y-128564285D01*
X129642857Y-128850000D01*
X129642857Y-129207142D01*
X129571428Y-129492857D01*
X129500000Y-129635714D01*
X129428571Y-129707142D01*
X129285714Y-129778571D01*
X129142857Y-129778571D01*
X129000000Y-129707142D01*
X128928571Y-129635714D01*
X128857142Y-129492857D01*
X128785714Y-129207142D01*
X128785714Y-128850000D01*
X128857142Y-128564285D01*
X128928571Y-128421428D01*
X129000000Y-128350000D01*
X129142857Y-128278571D01*
X130571428Y-128278571D02*
X130714285Y-128278571D01*
X130857142Y-128350000D01*
X130928571Y-128421428D01*
X131000000Y-128564285D01*
X131071428Y-128850000D01*
X131071428Y-129207142D01*
X131000000Y-129492857D01*
X130928571Y-129635714D01*
X130857142Y-129707142D01*
X130714285Y-129778571D01*
X130571428Y-129778571D01*
X130428571Y-129707142D01*
X130357142Y-129635714D01*
X130285714Y-129492857D01*
X130214285Y-129207142D01*
X130214285Y-128850000D01*
X130285714Y-128564285D01*
X130357142Y-128421428D01*
X130428571Y-128350000D01*
X130571428Y-128278571D01*
X132857142Y-129778571D02*
X132857142Y-128778571D01*
X132857142Y-128921428D02*
X132928571Y-128850000D01*
X133071428Y-128778571D01*
X133285714Y-128778571D01*
X133428571Y-128850000D01*
X133500000Y-128992857D01*
X133500000Y-129778571D01*
X133500000Y-128992857D02*
X133571428Y-128850000D01*
X133714285Y-128778571D01*
X133928571Y-128778571D01*
X134071428Y-128850000D01*
X134142857Y-128992857D01*
X134142857Y-129778571D01*
X134857142Y-129778571D02*
X134857142Y-128778571D01*
X134857142Y-128921428D02*
X134928571Y-128850000D01*
X135071428Y-128778571D01*
X135285714Y-128778571D01*
X135428571Y-128850000D01*
X135500000Y-128992857D01*
X135500000Y-129778571D01*
X135500000Y-128992857D02*
X135571428Y-128850000D01*
X135714285Y-128778571D01*
X135928571Y-128778571D01*
X136071428Y-128850000D01*
X136142857Y-128992857D01*
X136142857Y-129778571D01*
X90000000Y-127000000D02*
X170000000Y-127000000D01*
X90000000Y-120000000D02*
X90000000Y-127586421D01*
X170000000Y-120000000D02*
X170000000Y-127586421D01*
X170000000Y-127000000D02*
X168873496Y-127586421D01*
X170000000Y-127000000D02*
X168873496Y-126413579D01*
X90000000Y-127000000D02*
X91126504Y-127586421D01*
X90000000Y-127000000D02*
X91126504Y-126413579D01*
D11*
G04 #@! TO.C,J1*
X102710000Y-98700000D02*
X102710000Y-99300000D01*
X102110000Y-99000000D02*
X102710000Y-98700000D01*
X102710000Y-99300000D02*
X102110000Y-99000000D01*
X94800000Y-116980000D02*
X94800000Y-116240000D01*
X100100000Y-116980000D02*
X94800000Y-116980000D01*
X100100000Y-96260000D02*
X100100000Y-116980000D01*
X94800000Y-96260000D02*
X100100000Y-96260000D01*
X94800000Y-97000000D02*
X94800000Y-96260000D01*
X94800000Y-111160000D02*
X94800000Y-112240000D01*
X94800000Y-106080000D02*
X94800000Y-107160000D01*
X94800000Y-101000000D02*
X94800000Y-102080000D01*
X100100000Y-115240000D02*
X100100000Y-113240000D01*
X101910000Y-115240000D02*
X100100000Y-115240000D01*
X101910000Y-113240000D02*
X101910000Y-115240000D01*
X100100000Y-113240000D02*
X101910000Y-113240000D01*
X100100000Y-110160000D02*
X100100000Y-108160000D01*
X101910000Y-110160000D02*
X100100000Y-110160000D01*
X101910000Y-108160000D02*
X101910000Y-110160000D01*
X100100000Y-108160000D02*
X101910000Y-108160000D01*
X100100000Y-105080000D02*
X100100000Y-103080000D01*
X101910000Y-105080000D02*
X100100000Y-105080000D01*
X101910000Y-103080000D02*
X101910000Y-105080000D01*
X100100000Y-103080000D02*
X101910000Y-103080000D01*
X100100000Y-100000000D02*
X100100000Y-98000000D01*
X101910000Y-100000000D02*
X100100000Y-100000000D01*
X101910000Y-98000000D02*
X101910000Y-100000000D01*
X100100000Y-98000000D02*
X101910000Y-98000000D01*
X101100000Y-110160000D02*
X101100000Y-113240000D01*
X101100000Y-105080000D02*
X101100000Y-108160000D01*
X101100000Y-100000000D02*
X101100000Y-103080000D01*
X101100000Y-117890000D02*
X101100000Y-115350000D01*
X101100000Y-95350000D02*
X101100000Y-97890000D01*
X101910000Y-117890000D02*
X101910000Y-95350000D01*
X93090000Y-117890000D02*
X101910000Y-117890000D01*
X93090000Y-95350000D02*
X93090000Y-117890000D01*
X101910000Y-95350000D02*
X93090000Y-95350000D01*
X94784179Y-116226841D02*
G75*
G02X94800000Y-112240000I1665821J1986841D01*
G01*
X94784179Y-111146841D02*
G75*
G02X94800000Y-107160000I1665821J1986841D01*
G01*
X94784179Y-106066841D02*
G75*
G02X94800000Y-102080000I1665821J1986841D01*
G01*
X94784179Y-100986841D02*
G75*
G02X94800000Y-97000000I1665821J1986841D01*
G01*
G04 #@! TO.C,J2*
X127284179Y-100986841D02*
G75*
G02X127300000Y-97000000I1665821J1986841D01*
G01*
X127284179Y-106066841D02*
G75*
G02X127300000Y-102080000I1665821J1986841D01*
G01*
X134410000Y-95350000D02*
X125590000Y-95350000D01*
X125590000Y-95350000D02*
X125590000Y-107730000D01*
X125590000Y-107730000D02*
X134410000Y-107730000D01*
X134410000Y-107730000D02*
X134410000Y-95350000D01*
X133600000Y-95350000D02*
X133600000Y-97890000D01*
X133600000Y-107730000D02*
X133600000Y-105190000D01*
X133600000Y-100000000D02*
X133600000Y-103080000D01*
X132600000Y-98000000D02*
X134410000Y-98000000D01*
X134410000Y-98000000D02*
X134410000Y-100000000D01*
X134410000Y-100000000D02*
X132600000Y-100000000D01*
X132600000Y-100000000D02*
X132600000Y-98000000D01*
X132600000Y-103080000D02*
X134410000Y-103080000D01*
X134410000Y-103080000D02*
X134410000Y-105080000D01*
X134410000Y-105080000D02*
X132600000Y-105080000D01*
X132600000Y-105080000D02*
X132600000Y-103080000D01*
X127300000Y-101000000D02*
X127300000Y-102080000D01*
X127300000Y-97000000D02*
X127300000Y-96260000D01*
X127300000Y-96260000D02*
X132600000Y-96260000D01*
X132600000Y-96260000D02*
X132600000Y-106820000D01*
X132600000Y-106820000D02*
X127300000Y-106820000D01*
X127300000Y-106820000D02*
X127300000Y-106080000D01*
X135210000Y-99300000D02*
X134610000Y-99000000D01*
X134610000Y-99000000D02*
X135210000Y-98700000D01*
X135210000Y-98700000D02*
X135210000Y-99300000D01*
G04 #@! TO.C,J3*
X159784179Y-100986841D02*
G75*
G02X159800000Y-97000000I1665821J1986841D01*
G01*
X159784179Y-106066841D02*
G75*
G02X159800000Y-102080000I1665821J1986841D01*
G01*
X159784179Y-111146841D02*
G75*
G02X159800000Y-107160000I1665821J1986841D01*
G01*
X159784179Y-116226841D02*
G75*
G02X159800000Y-112240000I1665821J1986841D01*
G01*
X166910000Y-95350000D02*
X158090000Y-95350000D01*
X158090000Y-95350000D02*
X158090000Y-117890000D01*
X158090000Y-117890000D02*
X166910000Y-117890000D01*
X166910000Y-117890000D02*
X166910000Y-95350000D01*
X166100000Y-95350000D02*
X166100000Y-97890000D01*
X166100000Y-117890000D02*
X166100000Y-115350000D01*
X166100000Y-100000000D02*
X166100000Y-103080000D01*
X166100000Y-105080000D02*
X166100000Y-108160000D01*
X166100000Y-110160000D02*
X166100000Y-113240000D01*
X165100000Y-98000000D02*
X166910000Y-98000000D01*
X166910000Y-98000000D02*
X166910000Y-100000000D01*
X166910000Y-100000000D02*
X165100000Y-100000000D01*
X165100000Y-100000000D02*
X165100000Y-98000000D01*
X165100000Y-103080000D02*
X166910000Y-103080000D01*
X166910000Y-103080000D02*
X166910000Y-105080000D01*
X166910000Y-105080000D02*
X165100000Y-105080000D01*
X165100000Y-105080000D02*
X165100000Y-103080000D01*
X165100000Y-108160000D02*
X166910000Y-108160000D01*
X166910000Y-108160000D02*
X166910000Y-110160000D01*
X166910000Y-110160000D02*
X165100000Y-110160000D01*
X165100000Y-110160000D02*
X165100000Y-108160000D01*
X165100000Y-113240000D02*
X166910000Y-113240000D01*
X166910000Y-113240000D02*
X166910000Y-115240000D01*
X166910000Y-115240000D02*
X165100000Y-115240000D01*
X165100000Y-115240000D02*
X165100000Y-113240000D01*
X159800000Y-101000000D02*
X159800000Y-102080000D01*
X159800000Y-106080000D02*
X159800000Y-107160000D01*
X159800000Y-111160000D02*
X159800000Y-112240000D01*
X159800000Y-97000000D02*
X159800000Y-96260000D01*
X159800000Y-96260000D02*
X165100000Y-96260000D01*
X165100000Y-96260000D02*
X165100000Y-116980000D01*
X165100000Y-116980000D02*
X159800000Y-116980000D01*
X159800000Y-116980000D02*
X159800000Y-116240000D01*
X167710000Y-99300000D02*
X167110000Y-99000000D01*
X167110000Y-99000000D02*
X167710000Y-98700000D01*
X167710000Y-98700000D02*
X167710000Y-99300000D01*
G04 #@! TO.C,J1*
D12*
X102452380Y-106953333D02*
X103166666Y-106953333D01*
X103309523Y-107000952D01*
X103404761Y-107096190D01*
X103452380Y-107239047D01*
X103452380Y-107334285D01*
X103452380Y-105953333D02*
X103452380Y-106524761D01*
X103452380Y-106239047D02*
X102452380Y-106239047D01*
X102595238Y-106334285D01*
X102690476Y-106429523D01*
X102738095Y-106524761D01*
G04 #@! TO.C,J2*
X134952380Y-101873333D02*
X135666666Y-101873333D01*
X135809523Y-101920952D01*
X135904761Y-102016190D01*
X135952380Y-102159047D01*
X135952380Y-102254285D01*
X135047619Y-101444761D02*
X135000000Y-101397142D01*
X134952380Y-101301904D01*
X134952380Y-101063809D01*
X135000000Y-100968571D01*
X135047619Y-100920952D01*
X135142857Y-100873333D01*
X135238095Y-100873333D01*
X135380952Y-100920952D01*
X135952380Y-101492380D01*
X135952380Y-100873333D01*
G04 #@! TO.C,J3*
X167452380Y-106953333D02*
X168166666Y-106953333D01*
X168309523Y-107000952D01*
X168404761Y-107096190D01*
X168452380Y-107239047D01*
X168452380Y-107334285D01*
X167452380Y-106572380D02*
X167452380Y-105953333D01*
X167833333Y-106286666D01*
X167833333Y-106143809D01*
X167880952Y-106048571D01*
X167928571Y-106000952D01*
X168023809Y-105953333D01*
X168261904Y-105953333D01*
X168357142Y-106000952D01*
X168404761Y-106048571D01*
X168452380Y-106143809D01*
X168452380Y-106429523D01*
X168404761Y-106524761D01*
X168357142Y-106572380D01*
G04 #@! TD*
M02*
